%TF.GenerationSoftware,KiCad,Pcbnew,10.0.3*%
%TF.CreationDate,2026-06-21T07:40:54+02:00*%
%TF.ProjectId,Pathfinder,50617468-6669-46e6-9465-722e6b696361,rev?*%
%TF.SameCoordinates,Original*%
%TF.FileFunction,Other,User*%
%FSLAX46Y46*%
G04 Gerber Fmt 4.6, Leading zero omitted, Abs format (unit mm)*
G04 Created by KiCad (PCBNEW 10.0.3) date 2026-06-21 07:40:54*
%MOMM*%
%LPD*%
G01*
G04 APERTURE LIST*
%ADD10C,0.050000*%
G04 APERTURE END LIST*
%TO.C,D2*%
D10*
X266750000Y-93750000D02*
X272250000Y-93750000D01*
X272250000Y-110250000D01*
X266750000Y-110250000D01*
X266750000Y-93750000D01*
%TO.C,U1*%
X251980000Y-60070000D02*
X269780000Y-60070000D01*
X269780000Y-81045000D01*
X251980000Y-81045000D01*
X251980000Y-60070000D01*
%TO.C,D4*%
X260650000Y-93750000D02*
X266150000Y-93750000D01*
X266150000Y-110250000D01*
X260650000Y-110250000D01*
X260650000Y-93750000D01*
%TO.C,D10*%
X247250000Y-111750000D02*
X252750000Y-111750000D01*
X252750000Y-128250000D01*
X247250000Y-128250000D01*
X247250000Y-111750000D01*
%TO.C,D8*%
X260800000Y-111250000D02*
X266300000Y-111250000D01*
X266300000Y-127750000D01*
X260800000Y-127750000D01*
X260800000Y-111250000D01*
%TO.C,D11*%
X240250000Y-94250000D02*
X245750000Y-94250000D01*
X245750000Y-110750000D01*
X240250000Y-110750000D01*
X240250000Y-94250000D01*
%TO.C,D5*%
X240250000Y-87250000D02*
X256750000Y-87250000D01*
X256750000Y-92750000D01*
X240250000Y-92750000D01*
X240250000Y-87250000D01*
%TO.C,D9*%
X247250000Y-94250000D02*
X252750000Y-94250000D01*
X252750000Y-110750000D01*
X247250000Y-110750000D01*
X247250000Y-94250000D01*
%TO.C,D6*%
X257250000Y-87250000D02*
X273750000Y-87250000D01*
X273750000Y-92750000D01*
X257250000Y-92750000D01*
X257250000Y-87250000D01*
%TO.C,D1*%
X266750000Y-111250000D02*
X272250000Y-111250000D01*
X272250000Y-127750000D01*
X266750000Y-127750000D01*
X266750000Y-111250000D01*
%TO.C,D12*%
X240250000Y-111750000D02*
X245750000Y-111750000D01*
X245750000Y-128250000D01*
X240250000Y-128250000D01*
X240250000Y-111750000D01*
%TO.C,D7*%
X254250000Y-111250000D02*
X259750000Y-111250000D01*
X259750000Y-127750000D01*
X254250000Y-127750000D01*
X254250000Y-111250000D01*
%TO.C,D3*%
X254100000Y-93750000D02*
X259600000Y-93750000D01*
X259600000Y-110250000D01*
X254100000Y-110250000D01*
X254100000Y-93750000D01*
%TD*%
M02*
